<mxfile host="app.diagrams.net" agent="Mozilla/5.0 (Macintosh; Intel Mac OS X 10_15_7) AppleWebKit/537.36 (KHTML, like Gecko) Chrome/138.0.0.0 Safari/537.36" version="28.0.6">
  <diagram name="Page-1" id="FyFeiL5G1BlD4Cp8QNRQ">
    <mxGraphModel dx="1426" dy="769" grid="1" gridSize="10" guides="1" tooltips="1" connect="1" arrows="1" fold="1" page="1" pageScale="1" pageWidth="827" pageHeight="1169" math="0" shadow="0">
      <root>
        <mxCell id="0" />
        <mxCell id="1" parent="0" />
        <mxCell id="-w9RF79IyU0SM5viAb9O-19" style="edgeStyle=orthogonalEdgeStyle;rounded=0;orthogonalLoop=1;jettySize=auto;html=1;exitX=1;exitY=0;exitDx=0;exitDy=0;entryX=0;entryY=0.5;entryDx=0;entryDy=0;curved=1;" edge="1" parent="1" source="-w9RF79IyU0SM5viAb9O-1" target="-w9RF79IyU0SM5viAb9O-4">
          <mxGeometry relative="1" as="geometry" />
        </mxCell>
        <mxCell id="-w9RF79IyU0SM5viAb9O-20" style="edgeStyle=orthogonalEdgeStyle;rounded=0;orthogonalLoop=1;jettySize=auto;html=1;exitX=1;exitY=1;exitDx=0;exitDy=0;entryX=0;entryY=0.5;entryDx=0;entryDy=0;curved=1;" edge="1" parent="1" source="-w9RF79IyU0SM5viAb9O-1" target="-w9RF79IyU0SM5viAb9O-5">
          <mxGeometry relative="1" as="geometry" />
        </mxCell>
        <mxCell id="-w9RF79IyU0SM5viAb9O-1" value="Idle" style="rounded=1;whiteSpace=wrap;html=1;" vertex="1" parent="1">
          <mxGeometry x="40" y="370" width="120" height="60" as="geometry" />
        </mxCell>
        <mxCell id="-w9RF79IyU0SM5viAb9O-9" value="" style="edgeStyle=orthogonalEdgeStyle;rounded=0;orthogonalLoop=1;jettySize=auto;html=1;" edge="1" parent="1" source="-w9RF79IyU0SM5viAb9O-4" target="-w9RF79IyU0SM5viAb9O-7">
          <mxGeometry relative="1" as="geometry" />
        </mxCell>
        <mxCell id="-w9RF79IyU0SM5viAb9O-10" value="Yes" style="edgeLabel;html=1;align=center;verticalAlign=middle;resizable=0;points=[];" vertex="1" connectable="0" parent="-w9RF79IyU0SM5viAb9O-9">
          <mxGeometry x="-0.0909" y="2" relative="1" as="geometry">
            <mxPoint as="offset" />
          </mxGeometry>
        </mxCell>
        <mxCell id="-w9RF79IyU0SM5viAb9O-23" style="edgeStyle=orthogonalEdgeStyle;rounded=0;orthogonalLoop=1;jettySize=auto;html=1;exitX=1;exitY=1;exitDx=0;exitDy=0;entryX=0;entryY=0.5;entryDx=0;entryDy=0;curved=1;" edge="1" parent="1" source="-w9RF79IyU0SM5viAb9O-4" target="-w9RF79IyU0SM5viAb9O-6">
          <mxGeometry relative="1" as="geometry">
            <Array as="points">
              <mxPoint x="292" y="390" />
              <mxPoint x="490" y="390" />
              <mxPoint x="490" y="400" />
            </Array>
          </mxGeometry>
        </mxCell>
        <mxCell id="-w9RF79IyU0SM5viAb9O-25" value="No" style="edgeLabel;html=1;align=center;verticalAlign=middle;resizable=0;points=[];" vertex="1" connectable="0" parent="-w9RF79IyU0SM5viAb9O-23">
          <mxGeometry x="-0.8343" y="7" relative="1" as="geometry">
            <mxPoint as="offset" />
          </mxGeometry>
        </mxCell>
        <mxCell id="-w9RF79IyU0SM5viAb9O-4" value="&lt;i&gt;TEMT6000Changed&lt;/i&gt;" style="ellipse;whiteSpace=wrap;html=1;" vertex="1" parent="1">
          <mxGeometry x="190" y="230" width="120" height="80" as="geometry" />
        </mxCell>
        <mxCell id="-w9RF79IyU0SM5viAb9O-15" value="" style="edgeStyle=orthogonalEdgeStyle;rounded=0;orthogonalLoop=1;jettySize=auto;html=1;" edge="1" parent="1" source="-w9RF79IyU0SM5viAb9O-5" target="-w9RF79IyU0SM5viAb9O-13">
          <mxGeometry relative="1" as="geometry" />
        </mxCell>
        <mxCell id="-w9RF79IyU0SM5viAb9O-18" value="Yes" style="edgeLabel;html=1;align=center;verticalAlign=middle;resizable=0;points=[];" vertex="1" connectable="0" parent="-w9RF79IyU0SM5viAb9O-15">
          <mxGeometry x="0.0909" y="3" relative="1" as="geometry">
            <mxPoint as="offset" />
          </mxGeometry>
        </mxCell>
        <mxCell id="-w9RF79IyU0SM5viAb9O-22" style="edgeStyle=orthogonalEdgeStyle;rounded=0;orthogonalLoop=1;jettySize=auto;html=1;exitX=1;exitY=0;exitDx=0;exitDy=0;entryX=0;entryY=0.5;entryDx=0;entryDy=0;curved=1;" edge="1" parent="1" source="-w9RF79IyU0SM5viAb9O-5" target="-w9RF79IyU0SM5viAb9O-6">
          <mxGeometry relative="1" as="geometry">
            <Array as="points">
              <mxPoint x="292" y="420" />
              <mxPoint x="540" y="420" />
              <mxPoint x="540" y="400" />
            </Array>
          </mxGeometry>
        </mxCell>
        <mxCell id="-w9RF79IyU0SM5viAb9O-26" value="No" style="edgeLabel;html=1;align=center;verticalAlign=middle;resizable=0;points=[];" vertex="1" connectable="0" parent="-w9RF79IyU0SM5viAb9O-22">
          <mxGeometry x="-0.5164" y="-22" relative="1" as="geometry">
            <mxPoint as="offset" />
          </mxGeometry>
        </mxCell>
        <mxCell id="-w9RF79IyU0SM5viAb9O-5" value="&lt;i&gt;DHT22Changed&lt;/i&gt;" style="ellipse;whiteSpace=wrap;html=1;" vertex="1" parent="1">
          <mxGeometry x="190" y="500" width="120" height="80" as="geometry" />
        </mxCell>
        <mxCell id="-w9RF79IyU0SM5viAb9O-6" value="Idle" style="rounded=1;whiteSpace=wrap;html=1;" vertex="1" parent="1">
          <mxGeometry x="670" y="370" width="120" height="60" as="geometry" />
        </mxCell>
        <mxCell id="-w9RF79IyU0SM5viAb9O-11" value="" style="edgeStyle=orthogonalEdgeStyle;rounded=0;orthogonalLoop=1;jettySize=auto;html=1;" edge="1" parent="1" source="-w9RF79IyU0SM5viAb9O-7" target="-w9RF79IyU0SM5viAb9O-8">
          <mxGeometry relative="1" as="geometry" />
        </mxCell>
        <mxCell id="-w9RF79IyU0SM5viAb9O-7" value="Compare to target" style="rounded=1;whiteSpace=wrap;html=1;" vertex="1" parent="1">
          <mxGeometry x="354" y="240" width="120" height="60" as="geometry" />
        </mxCell>
        <mxCell id="-w9RF79IyU0SM5viAb9O-12" style="edgeStyle=orthogonalEdgeStyle;rounded=0;orthogonalLoop=1;jettySize=auto;html=1;entryX=0.5;entryY=0;entryDx=0;entryDy=0;curved=1;" edge="1" parent="1" source="-w9RF79IyU0SM5viAb9O-8" target="-w9RF79IyU0SM5viAb9O-6">
          <mxGeometry relative="1" as="geometry" />
        </mxCell>
        <mxCell id="-w9RF79IyU0SM5viAb9O-8" value="Update &lt;i&gt;BlindsGPIO&lt;/i&gt;" style="rounded=1;whiteSpace=wrap;html=1;" vertex="1" parent="1">
          <mxGeometry x="520" y="240" width="120" height="60" as="geometry" />
        </mxCell>
        <mxCell id="-w9RF79IyU0SM5viAb9O-16" value="" style="edgeStyle=orthogonalEdgeStyle;rounded=0;orthogonalLoop=1;jettySize=auto;html=1;" edge="1" parent="1" source="-w9RF79IyU0SM5viAb9O-13" target="-w9RF79IyU0SM5viAb9O-14">
          <mxGeometry relative="1" as="geometry" />
        </mxCell>
        <mxCell id="-w9RF79IyU0SM5viAb9O-13" value="Compare to target" style="rounded=1;whiteSpace=wrap;html=1;" vertex="1" parent="1">
          <mxGeometry x="354" y="510" width="120" height="60" as="geometry" />
        </mxCell>
        <mxCell id="-w9RF79IyU0SM5viAb9O-17" style="edgeStyle=orthogonalEdgeStyle;rounded=0;orthogonalLoop=1;jettySize=auto;html=1;entryX=0.5;entryY=1;entryDx=0;entryDy=0;curved=1;" edge="1" parent="1" source="-w9RF79IyU0SM5viAb9O-14" target="-w9RF79IyU0SM5viAb9O-6">
          <mxGeometry relative="1" as="geometry" />
        </mxCell>
        <mxCell id="-w9RF79IyU0SM5viAb9O-14" value="Update &lt;i&gt;HeaterGPIO&lt;/i&gt;" style="rounded=1;whiteSpace=wrap;html=1;" vertex="1" parent="1">
          <mxGeometry x="520" y="510" width="120" height="60" as="geometry" />
        </mxCell>
      </root>
    </mxGraphModel>
  </diagram>
</mxfile>
